<?xml version="1.0" encoding="UTF-8" standalone="no"?>
<!DOCTYPE svg PUBLIC "-//W3C//DTD SVG 1.1//EN" "http://www.w3.org/Graphics/SVG/1.1/DTD/svg11.dtd">
<svg xmlns="http://www.w3.org/2000/svg" version="1.1" viewBox="0.00 0.00 416.00 400.00">
<g stroke-width="2.00" fill="none" stroke-linecap="butt">
<path stroke="#dadee2" vector-effect="non-scaling-stroke" d="
  M 136.77 58.75
  L 135.50 58.73"
/>
<path stroke="#88b890" vector-effect="non-scaling-stroke" d="
  M 135.50 58.73
  Q 135.51 58.61 135.48 58.44
  Q 135.45 58.25 135.24 58.25
  Q 71.46 58.37 7.69 57.99
  Q 5.44 57.98 3.65 58.77"
/>
<path stroke="#dadee2" vector-effect="non-scaling-stroke" d="
  M 3.65 58.77
  Q 3.37 58.24 2.26 59.01"
/>
<path stroke="#74dbf5" vector-effect="non-scaling-stroke" d="
  M 202.36 73.06
  L 197.19 73.12"
/>
<path stroke="#96c599" vector-effect="non-scaling-stroke" d="
  M 135.50 58.73
  Q 83.33 58.81 31.16 58.70
  C 24.18 58.69 12.90 58.31 3.65 58.77"
/>
<path stroke="#959696" vector-effect="non-scaling-stroke" d="
  M 166.51 111.53
  L 233.15 111.51"
/>
<path stroke="#74dbf5" vector-effect="non-scaling-stroke" d="
  M 299.31 152.28
  C 304.44 168.30 305.11 182.80 299.23 198.71"
/>
<path stroke="#7aae92" vector-effect="non-scaling-stroke" d="
  M 299.23 198.71
  Q 293.02 213.38 281.84 223.53"
/>
<path stroke="#88898a" vector-effect="non-scaling-stroke" d="
  M 216.72 239.29
  L 185.47 239.30"
/>
<path stroke="#74dbf5" vector-effect="non-scaling-stroke" d="
  M 100.13 198.55
  Q 96.76 188.34 96.24 177.76"
/>
<path stroke="#74e4f5" vector-effect="non-scaling-stroke" d="
  M 96.24 177.76
  Q 96.07 166.11 100.26 153.63
  Q 100.67 152.40 99.38 152.36
  Q 95.23 152.23 91.72 154.88"
/>
<path stroke="#74dbf5" vector-effect="non-scaling-stroke" d="
  M 91.72 154.88
  C 87.53 158.43 85.55 161.88 84.83 167.24"
/>
<path stroke="#98ddcc" vector-effect="non-scaling-stroke" d="
  M 105.89 140.94
  Q 111.01 135.98 109.60 128.13"
/>
<path stroke="#c4dfaa" vector-effect="non-scaling-stroke" d="
  M 109.60 128.13
  L 109.63 93.23"
/>
<path stroke="#a3c3ec" vector-effect="non-scaling-stroke" d="
  M 109.63 93.23
  L 109.53 78.00
  A 2.02 2.02 0.0 0 0 107.51 76.00
  L 96.78 76.00
  A 2.28 2.28 0.0 0 0 94.50 78.28
  L 94.50 93.13"
/>
<path stroke="#c4dfaa" vector-effect="non-scaling-stroke" d="
  M 94.50 93.13
  L 94.51 128.23"
/>
<path stroke="#98ddcc" vector-effect="non-scaling-stroke" d="
  M 94.51 128.23
  L 94.48 140.79"
/>
<path stroke="#dadee2" vector-effect="non-scaling-stroke" d="
  M 94.48 140.79
  Q 92.65 141.25 90.77 140.92
  Q 90.25 140.84 90.24 140.31
  L 90.14 135.47"
/>
<path stroke="#98ddcc" vector-effect="non-scaling-stroke" d="
  M 90.14 135.47
  L 89.96 134.75"
/>
<path stroke="#c4dfaa" vector-effect="non-scaling-stroke" d="
  M 89.96 134.75
  L 90.06 123.75"
/>
<path stroke="#a3c3ec" vector-effect="non-scaling-stroke" d="
  M 90.06 123.75
  L 89.95 119.10
  A 1.90 1.90 0.0 0 0 88.05 117.25
  L 77.26 117.25
  A 2.26 2.26 0.0 0 0 75.00 119.52
  L 75.03 123.75"
/>
<path stroke="#c4dfaa" vector-effect="non-scaling-stroke" d="
  M 75.03 123.75
  L 75.07 134.74"
/>
<path stroke="#98ddcc" vector-effect="non-scaling-stroke" d="
  M 75.07 134.74
  L 74.98 140.94"
/>
<path stroke="#dadee2" vector-effect="non-scaling-stroke" d="
  M 74.98 140.94
  L 70.49 140.91"
/>
<path stroke="#98ddcc" vector-effect="non-scaling-stroke" d="
  M 70.49 140.91
  L 70.49 110.84"
/>
<path stroke="#c4dfaa" vector-effect="non-scaling-stroke" d="
  M 70.49 110.84
  L 70.46 97.75"
/>
<path stroke="#a3c3ec" vector-effect="non-scaling-stroke" d="
  M 70.46 97.75
  L 70.48 88.94
  A 2.19 2.19 0.0 0 0 68.29 86.75
  L 57.54 86.75
  A 2.05 2.05 0.0 0 0 55.49 88.79
  L 55.45 97.75"
/>
<path stroke="#c4dfaa" vector-effect="non-scaling-stroke" d="
  M 55.45 97.75
  L 55.45 110.87"
/>
<path stroke="#98ddcc" vector-effect="non-scaling-stroke" d="
  M 55.45 110.87
  L 55.43 140.91"
/>
<path stroke="#dadee2" vector-effect="non-scaling-stroke" d="
  M 55.43 140.91
  L 50.95 140.97"
/>
<path stroke="#98ddcc" vector-effect="non-scaling-stroke" d="
  M 50.95 140.97
  L 50.71 136.75"
/>
<path stroke="#c4dfaa" vector-effect="non-scaling-stroke" d="
  M 50.71 136.75
  L 50.92 102.00"
/>
<path stroke="#a3c3ec" vector-effect="non-scaling-stroke" d="
  M 50.92 102.00
  L 50.97 97.70
  A 2.18 2.18 0.0 0 0 48.79 95.50
  L 38.06 95.50
  A 1.99 1.99 0.0 0 0 36.18 96.83
  Q 35.41 99.01 35.82 102.02"
/>
<path stroke="#c4dfaa" vector-effect="non-scaling-stroke" d="
  M 35.82 102.02
  L 35.84 136.87"
/>
<path stroke="#98ddcc" vector-effect="non-scaling-stroke" d="
  M 35.84 136.87
  L 35.79 140.93"
/>
<path stroke="#dadee2" vector-effect="non-scaling-stroke" d="
  M 35.79 140.93
  L 31.49 140.95"
/>
<path stroke="#98ddcc" vector-effect="non-scaling-stroke" d="
  M 31.49 140.95
  L 31.48 110.83"
/>
<path stroke="#c4dfaa" vector-effect="non-scaling-stroke" d="
  M 31.48 110.83
  L 31.42 86.75"
/>
<path stroke="#a3c3ec" vector-effect="non-scaling-stroke" d="
  M 31.42 86.75
  C 31.53 84.07 32.98 73.71 28.74 73.72
  Q 24.24 73.73 19.74 73.76
  C 17.31 73.77 16.41 74.24 16.32 76.75
  Q 16.14 81.77 16.34 86.75"
/>
<path stroke="#c4dfaa" vector-effect="non-scaling-stroke" d="
  M 16.34 86.75
  L 16.31 110.86"
/>
<path stroke="#98ddcc" vector-effect="non-scaling-stroke" d="
  M 16.31 110.86
  L 16.26 140.82"
/>
<path stroke="#dadee2" vector-effect="non-scaling-stroke" d="
  M 16.26 140.82
  L 12.60 140.92
  Q 12.00 140.94 12.00 140.34
  L 12.00 67.34
  A 2.09 2.09 0.0 0 0 10.24 65.28
  Q 7.97 64.92 7.95 67.57
  Q 7.75 104.39 7.74 141.21
  C 7.74 144.73 7.37 145.51 11.33 145.51
  Q 56.60 145.49 101.88 145.50
  Q 102.52 145.50 102.29 146.10
  L 101.45 148.21
  A 0.15 0.15 0.0 0 0 101.71 148.34
  Q 103.82 144.84 105.89 140.94"
/>
<path stroke="#8ad0c3" vector-effect="non-scaling-stroke" d="
  M 16.26 140.82
  L 31.49 140.95"
/>
<path stroke="#8ad0c3" vector-effect="non-scaling-stroke" d="
  M 35.79 140.93
  L 50.95 140.97"
/>
<path stroke="#8ad0c3" vector-effect="non-scaling-stroke" d="
  M 55.43 140.91
  L 70.49 140.91"
/>
<path stroke="#8ad0c3" vector-effect="non-scaling-stroke" d="
  M 74.98 140.94
  L 89.46 140.97
  Q 89.98 140.97 90.00 140.45
  L 90.14 135.47"
/>
<path stroke="#8ad0c3" vector-effect="non-scaling-stroke" d="
  M 94.48 140.79
  L 105.89 140.94"
/>
<path stroke="#74d28b" vector-effect="non-scaling-stroke" d="
  M 109.60 128.13
  L 94.51 128.23"
/>
<path stroke="#74d28b" vector-effect="non-scaling-stroke" d="
  M 89.96 134.75
  L 75.07 134.74"
/>
<path stroke="#74d28b" vector-effect="non-scaling-stroke" d="
  M 70.49 110.84
  L 55.45 110.87"
/>
<path stroke="#74d28b" vector-effect="non-scaling-stroke" d="
  M 50.71 136.75
  L 35.84 136.87"
/>
<path stroke="#74d28b" vector-effect="non-scaling-stroke" d="
  M 31.48 110.83
  L 16.31 110.86"
/>
<path stroke="#7fb8aa" vector-effect="non-scaling-stroke" d="
  M 109.63 93.23
  L 94.50 93.13"
/>
<path stroke="#7fb8aa" vector-effect="non-scaling-stroke" d="
  M 90.06 123.75
  L 75.03 123.75"
/>
<path stroke="#7fb8aa" vector-effect="non-scaling-stroke" d="
  M 70.46 97.75
  L 55.45 97.75"
/>
<path stroke="#7fb8aa" vector-effect="non-scaling-stroke" d="
  M 50.92 102.00
  L 35.82 102.02"
/>
<path stroke="#7fb8aa" vector-effect="non-scaling-stroke" d="
  M 31.42 86.75
  L 16.34 86.75"
/>
<path stroke="#c4dfaa" vector-effect="non-scaling-stroke" d="
  M 114.13 99.89
  L 114.06 115.10"
/>
<path stroke="#98ddcc" vector-effect="non-scaling-stroke" d="
  M 114.06 115.10
  L 114.08 130.17
  Q 114.08 130.89 114.60 130.38
  Q 120.97 124.03 128.76 119.52
  Q 129.24 119.25 129.21 118.70
  L 129.03 115.02"
/>
<path stroke="#c4dfaa" vector-effect="non-scaling-stroke" d="
  M 129.03 115.02
  Q 129.63 107.15 128.96 100.00"
/>
<path stroke="#a3c3ec" vector-effect="non-scaling-stroke" d="
  M 128.96 100.00
  C 129.47 98.12 130.21 93.55 126.75 93.41
  Q 121.54 93.20 116.17 93.26
  A 1.99 1.98 -83.0 0 0 114.26 94.76
  Q 113.67 97.10 114.13 99.89"
/>
<path stroke="#7fb8aa" vector-effect="non-scaling-stroke" d="
  M 128.96 100.00
  L 114.13 99.89"
/>
<path stroke="#74d28b" vector-effect="non-scaling-stroke" d="
  M 129.03 115.02
  L 114.06 115.10"
/>
<path stroke="#88898a" vector-effect="non-scaling-stroke" d="
  M 128.75 169.95
  C 126.31 189.54 139.52 207.03 159.75 207.03
  Q 201.06 207.03 242.37 206.99
  C 243.33 206.98 245.50 206.79 246.32 206.57
  C 263.38 201.89 274.03 187.02 270.50 168.96"
/>
<path stroke="#959696" vector-effect="non-scaling-stroke" d="
  M 270.50 168.96
  C 267.66 153.68 254.07 144.09 239.00 144.08
  Q 202.25 144.05 165.51 143.97
  Q 155.99 143.95 151.14 145.33
  Q 133.45 150.35 128.75 169.95"
/>
<path stroke="#353535" vector-effect="non-scaling-stroke" d="
  M 270.50 168.96
  C 264.16 168.97 244.18 167.45 239.68 170.66"
/>
<path stroke="#2190a0" vector-effect="non-scaling-stroke" d="
  M 239.68 170.66
  Q 231.30 162.80 222.53 170.39"
/>
<path stroke="#353535" vector-effect="non-scaling-stroke" d="
  M 222.53 170.39
  L 220.96 171.08
  A 0.52 0.52 0.0 0 1 220.24 170.49
  Q 220.37 169.87 219.91 169.51
  Q 219.57 169.24 219.14 169.23
  Q 198.23 168.92 176.64 169.80"
/>
<path stroke="#2190a0" vector-effect="non-scaling-stroke" d="
  M 176.64 169.80
  Q 167.52 163.01 159.71 171.05"
/>
<path stroke="#353535" vector-effect="non-scaling-stroke" d="
  M 159.71 171.05
  Q 158.46 169.39 157.06 169.35
  Q 151.47 169.21 135.53 169.00
  C 133.33 168.98 131.11 169.83 128.75 169.95"
/>
<path stroke="#148394" vector-effect="non-scaling-stroke" d="
  M 239.68 170.66
  C 242.99 175.31 243.72 183.25 236.41 184.09
  Q 230.62 184.75 225.59 184.08
  C 217.78 183.03 219.14 175.11 222.53 170.39"
/>
<path stroke="#148394" vector-effect="non-scaling-stroke" d="
  M 176.64 169.80
  C 180.28 174.89 181.93 183.12 174.06 184.05
  Q 168.73 184.68 164.49 184.31
  C 156.44 183.61 155.91 176.82 159.71 171.05"
/>
<path stroke="#959696" vector-effect="non-scaling-stroke" d="
  M 202.44 93.25
  L 197.02 93.35"
/>
<path stroke="#00d5ff" vector-effect="non-scaling-stroke" d="
  M 96.24 177.76
  Q 94.73 164.99 99.41 153.95
  Q 99.93 152.72 98.63 153.06
  L 91.72 154.88"
/>
<path stroke="#069f9b" vector-effect="non-scaling-stroke" d="
  M 313.41 189.59
  Q 309.66 197.81 299.23 198.71"
/>
<path stroke="#288940" vector-effect="non-scaling-stroke" d="
  M 388.99 275.50
  L 373.30 275.50
  Q 371.79 275.50 371.78 277.02
  L 371.73 298.16
  Q 371.73 298.66 371.23 298.67
  Q 364.62 298.85 358.00 299.05
  C 354.06 299.17 356.27 308.79 357.62 310.66
  Q 363.58 318.89 370.31 326.45
  C 371.27 327.54 372.71 327.83 374.04 327.96"
/>
<path stroke="#29664e" vector-effect="non-scaling-stroke" d="
  M 374.04 327.96
  C 366.67 329.07 360.42 327.36 351.24 327.77
  Q 343.48 328.12 338.37 329.41"
/>
<path stroke="#7aae92" vector-effect="non-scaling-stroke" d="
  M 288.61 330.28
  L 283.41 301.19"
/>
<path stroke="#069f9b" vector-effect="non-scaling-stroke" d="
  M 283.41 301.19
  C 288.13 297.06 291.71 294.38 292.78 287.74
  Q 295.31 272.09 281.88 265.23"
/>
<path stroke="#288940" vector-effect="non-scaling-stroke" d="
  M 365.13 206.93
  Q 360.74 201.31 355.04 196.85"
/>
<path stroke="#74b080" vector-effect="non-scaling-stroke" d="
  M 355.04 196.85
  Q 354.69 195.29 353.86 195.01
  A 0.62 0.62 0.0 0 0 353.05 195.60
  L 353.03 225.99
  Q 353.03 226.70 353.74 226.70
  L 380.48 226.84
  A 0.93 0.92 85.6 0 0 381.40 225.76
  C 380.68 221.51 378.64 220.46 376.15 217.67
  Q 374.94 216.31 373.38 215.18
  Q 372.96 214.88 372.87 214.37
  Q 372.66 213.23 371.46 213.23
  A 1.15 1.13 72.0 0 1 370.50 212.73
  Q 368.15 209.24 365.13 206.93"
/>
<path stroke="#90c688" vector-effect="non-scaling-stroke" d="
  M 355.04 196.85
  Q 358.75 203.27 365.13 206.93"
/>
<path stroke="#7aae92" vector-effect="non-scaling-stroke" d="
  M 314.44 236.10
  C 315.75 243.42 322.71 252.45 326.55 259.03
  C 328.85 262.96 327.18 264.84 325.12 268.06
  Q 318.52 278.39 311.94 288.82
  A 0.42 0.42 0.0 0 0 312.29 289.46
  L 322.58 289.52
  A 2.73 2.72 14.0 0 0 325.01 288.06
  L 335.12 268.88
  Q 335.49 268.18 335.86 268.88
  L 346.42 288.83
  A 1.30 1.29 75.7 0 0 347.58 289.52
  L 358.48 289.40
  Q 359.27 289.39 358.85 288.72
  Q 351.44 276.85 344.06 264.97
  C 343.24 263.64 343.04 261.83 343.83 260.58
  C 349.29 252.02 356.26 242.62 357.73 235.46"
/>
<path stroke="#288940" vector-effect="non-scaling-stroke" d="
  M 357.73 235.46
  C 351.49 233.81 347.17 231.28 345.34 238.93"
/>
<path stroke="#7aae92" vector-effect="non-scaling-stroke" d="
  M 345.34 238.93
  L 336.43 256.29
  Q 336.21 256.72 336.00 256.29
  L 326.35 237.11"
/>
<path stroke="#288940" vector-effect="non-scaling-stroke" d="
  M 326.35 237.11
  Q 326.18 235.80 325.32 234.46
  Q 325.07 234.06 324.60 234.05
  L 315.55 233.82
  Q 315.06 233.81 314.76 234.19
  Q 314.03 235.10 314.44 236.10"
/>
<path stroke="#96c599" vector-effect="non-scaling-stroke" d="
  M 326.35 237.11
  Q 320.18 239.54 314.44 236.10"
/>
<path stroke="#96c599" vector-effect="non-scaling-stroke" d="
  M 357.73 235.46
  Q 355.71 236.71 353.71 237.48
  C 351.00 238.52 348.22 237.37 345.34 238.93"
/>
<path stroke="#88898a" vector-effect="non-scaling-stroke" d="
  M 216.58 249.77
  L 203.21 249.80"
/>
<path stroke="#353535" vector-effect="non-scaling-stroke" d="
  M 203.21 249.80
  L 198.69 249.77"
/>
<path stroke="#88898a" vector-effect="non-scaling-stroke" d="
  M 198.69 249.77
  L 185.32 249.81"
/>
<path stroke="#959696" vector-effect="non-scaling-stroke" d="
  M 203.21 249.80
  L 203.26 304.62
  Q 203.26 305.09 203.72 305.19
  Q 221.06 308.63 224.37 325.99
  A 0.59 0.58 84.6 0 0 224.94 326.47
  L 263.46 326.50"
/>
<path stroke="#959696" vector-effect="non-scaling-stroke" d="
  M 262.79 330.78
  L 224.92 330.79
  Q 224.40 330.79 224.32 331.30
  C 219.77 358.82 182.31 358.75 177.58 331.33
  Q 177.49 330.81 176.97 330.80
  Q 159.03 330.60 141.33 330.87
  Q 139.85 330.90 136.78 330.51"
/>
<path stroke="#959696" vector-effect="non-scaling-stroke" d="
  M 136.03 326.57
  L 176.90 326.52
  Q 177.39 326.52 177.48 326.04
  Q 180.76 308.49 198.26 305.16
  Q 198.71 305.07 198.71 304.61
  L 198.69 249.77"
/>
<path stroke="#2187a0" vector-effect="non-scaling-stroke" d="
  M 219.57 328.57
  A 18.67 18.67 0.0 0 0 200.90 309.90
  A 18.67 18.67 0.0 0 0 182.23 328.57
  A 18.67 18.67 0.0 0 0 200.90 347.24
  A 18.67 18.67 0.0 0 0 219.57 328.57"
/>
<path stroke="#74dbf5" vector-effect="non-scaling-stroke" d="
  M 131.00 302.18
  C 127.89 288.20 123.50 276.61 133.39 263.75"
/>
<path stroke="#74dbf5" vector-effect="non-scaling-stroke" d="
  M 266.02 263.76
  C 276.26 276.08 271.73 288.25 268.61 302.08"
/>
<path stroke="#74dbf5" vector-effect="non-scaling-stroke" d="
  M 124.84 303.58
  L 115.58 301.05"
/>
<path stroke="#24ced6" vector-effect="non-scaling-stroke" d="
  M 271.61 263.72
  Q 275.00 264.67 278.85 264.44"
/>
<path stroke="#74dbf5" vector-effect="non-scaling-stroke" d="
  M 283.41 301.19
  L 275.06 303.60
  Q 274.80 303.68 274.77 303.95
  Q 274.73 304.21 274.48 304.28"
/>
<path stroke="#447d56" vector-effect="non-scaling-stroke" d="
  M 389.04 282.50
  Q 389.03 282.64 389.01 282.80
  A 0.34 0.32 -85.9 0 1 388.69 283.09
  L 380.38 283.23
  A 0.89 0.89 0.0 0 0 379.50 284.12
  L 379.50 305.75
  A 0.80 0.80 0.0 0 1 378.69 306.55
  L 364.34 306.48
  A 0.69 0.68 77.5 0 0 363.72 307.46
  Q 364.34 308.80 365.42 310.10
  Q 372.00 318.04 378.23 326.25
  A 0.63 0.62 66.2 0 1 377.85 327.25
  L 374.04 327.96"
/>
</g>
<path fill="#ccd1d9" d="
  M 136.77 58.75
  L 135.50 58.73
  Q 135.51 58.61 135.48 58.44
  Q 135.45 58.25 135.24 58.25
  Q 71.46 58.37 7.69 57.99
  Q 5.44 57.98 3.65 58.77
  Q 3.37 58.24 2.26 59.01
  C 2.22 54.41 1.43 50.00 7.83 50.00
  Q 69.37 50.00 130.91 50.00
  C 137.45 50.00 136.73 53.81 136.77 58.75
  Z"
/>
<path fill="#00ccfe" d="
  M 202.36 73.06
  L 197.19 73.12
  Q 189.68 70.18 189.80 62.99
  C 189.99 51.39 207.02 49.47 209.44 60.98
  Q 211.19 69.33 202.36 73.06
  Z"
/>
<path fill="#439f47" d="
  M 135.50 58.73
  Q 83.33 58.81 31.16 58.70
  C 24.18 58.69 12.90 58.31 3.65 58.77
  Q 5.44 57.98 7.69 57.99
  Q 71.46 58.37 135.24 58.25
  Q 135.45 58.25 135.48 58.44
  Q 135.51 58.61 135.50 58.73
  Z"
/>
<path fill="#e8eaeb" d="
  M 3.65 58.77
  C 12.90 58.31 24.18 58.69 31.16 58.70
  Q 83.33 58.81 135.50 58.73
  L 136.77 58.75
  L 136.78 115.18
  Q 136.78 115.73 137.29 115.55
  Q 151.42 110.76 166.51 111.53
  L 233.15 111.51
  Q 244.86 111.33 249.28 112.17
  Q 285.14 118.97 299.31 152.28
  C 304.44 168.30 305.11 182.80 299.23 198.71
  Q 293.02 213.38 281.84 223.53
  Q 268.44 234.89 252.26 238.07
  C 242.21 240.05 228.42 239.27 216.72 239.29
  L 185.47 239.30
  C 173.14 239.18 158.56 240.33 147.43 238.10
  C 125.49 233.70 108.86 219.10 100.13 198.55
  Q 96.76 188.34 96.24 177.76
  Q 96.07 166.11 100.26 153.63
  Q 100.67 152.40 99.38 152.36
  Q 95.23 152.23 91.72 154.88
  C 87.53 158.43 85.55 161.88 84.83 167.24
  L 4.48 167.24
  A 2.22 2.22 0.0 0 1 2.26 165.02
  L 2.26 59.01
  Q 3.37 58.24 3.65 58.77
  Z
  M 105.89 140.94
  Q 111.01 135.98 109.60 128.13
  L 109.63 93.23
  L 109.53 78.00
  A 2.02 2.02 0.0 0 0 107.51 76.00
  L 96.78 76.00
  A 2.28 2.28 0.0 0 0 94.50 78.28
  L 94.50 93.13
  L 94.51 128.23
  L 94.48 140.79
  Q 92.65 141.25 90.77 140.92
  Q 90.25 140.84 90.24 140.31
  L 90.14 135.47
  L 89.96 134.75
  L 90.06 123.75
  L 89.95 119.10
  A 1.90 1.90 0.0 0 0 88.05 117.25
  L 77.26 117.25
  A 2.26 2.26 0.0 0 0 75.00 119.52
  L 75.03 123.75
  L 75.07 134.74
  L 74.98 140.94
  L 70.49 140.91
  L 70.49 110.84
  L 70.46 97.75
  L 70.48 88.94
  A 2.19 2.19 0.0 0 0 68.29 86.75
  L 57.54 86.75
  A 2.05 2.05 0.0 0 0 55.49 88.79
  L 55.45 97.75
  L 55.45 110.87
  L 55.43 140.91
  L 50.95 140.97
  L 50.71 136.75
  L 50.92 102.00
  L 50.97 97.70
  A 2.18 2.18 0.0 0 0 48.79 95.50
  L 38.06 95.50
  A 1.99 1.99 0.0 0 0 36.18 96.83
  Q 35.41 99.01 35.82 102.02
  L 35.84 136.87
  L 35.79 140.93
  L 31.49 140.95
  L 31.48 110.83
  L 31.42 86.75
  C 31.53 84.07 32.98 73.71 28.74 73.72
  Q 24.24 73.73 19.74 73.76
  C 17.31 73.77 16.41 74.24 16.32 76.75
  Q 16.14 81.77 16.34 86.75
  L 16.31 110.86
  L 16.26 140.82
  L 12.60 140.92
  Q 12.00 140.94 12.00 140.34
  L 12.00 67.34
  A 2.09 2.09 0.0 0 0 10.24 65.28
  Q 7.97 64.92 7.95 67.57
  Q 7.75 104.39 7.74 141.21
  C 7.74 144.73 7.37 145.51 11.33 145.51
  Q 56.60 145.49 101.88 145.50
  Q 102.52 145.50 102.29 146.10
  L 101.45 148.21
  A 0.15 0.15 0.0 0 0 101.71 148.34
  Q 103.82 144.84 105.89 140.94
  Z
  M 114.13 99.89
  L 114.06 115.10
  L 114.08 130.17
  Q 114.08 130.89 114.60 130.38
  Q 120.97 124.03 128.76 119.52
  Q 129.24 119.25 129.21 118.70
  L 129.03 115.02
  Q 129.63 107.15 128.96 100.00
  C 129.47 98.12 130.21 93.55 126.75 93.41
  Q 121.54 93.20 116.17 93.26
  A 1.99 1.98 -83.0 0 0 114.26 94.76
  Q 113.67 97.10 114.13 99.89
  Z
  M 128.75 169.95
  C 126.31 189.54 139.52 207.03 159.75 207.03
  Q 201.06 207.03 242.37 206.99
  C 243.33 206.98 245.50 206.79 246.32 206.57
  C 263.38 201.89 274.03 187.02 270.50 168.96
  C 267.66 153.68 254.07 144.09 239.00 144.08
  Q 202.25 144.05 165.51 143.97
  Q 155.99 143.95 151.14 145.33
  Q 133.45 150.35 128.75 169.95
  Z"
/>
<path fill="#ccd1d9" d="
  M 16.26 140.82
  L 31.49 140.95
  L 35.79 140.93
  L 50.95 140.97
  L 55.43 140.91
  L 70.49 140.91
  L 74.98 140.94
  L 89.46 140.97
  Q 89.98 140.97 90.00 140.45
  L 90.14 135.47
  L 90.24 140.31
  Q 90.25 140.84 90.77 140.92
  Q 92.65 141.25 94.48 140.79
  L 105.89 140.94
  Q 103.82 144.84 101.71 148.34
  A 0.15 0.15 0.0 0 1 101.45 148.21
  L 102.29 146.10
  Q 102.52 145.50 101.88 145.50
  Q 56.60 145.49 11.33 145.51
  C 7.37 145.51 7.74 144.73 7.74 141.21
  Q 7.75 104.39 7.95 67.57
  Q 7.97 64.92 10.24 65.28
  A 2.09 2.09 0.0 0 1 12.00 67.34
  L 12.00 140.34
  Q 12.00 140.94 12.60 140.92
  L 16.26 140.82
  Z"
/>
<path fill="#e8eaeb" d="
  M 202.36 73.06
  L 202.44 93.25
  L 197.02 93.35
  L 197.19 73.12
  L 202.36 73.06
  Z"
/>
<path fill="#5d9cec" d="
  M 31.42 86.75
  L 16.34 86.75
  Q 16.14 81.77 16.32 76.75
  C 16.41 74.24 17.31 73.77 19.74 73.76
  Q 24.24 73.73 28.74 73.72
  C 32.98 73.71 31.53 84.07 31.42 86.75
  Z"
/>
<path fill="#5d9cec" d="
  M 109.63 93.23
  L 94.50 93.13
  L 94.50 78.28
  A 2.28 2.28 0.0 0 1 96.78 76.00
  L 107.51 76.00
  A 2.02 2.02 0.0 0 1 109.53 78.00
  L 109.63 93.23
  Z"
/>
<path fill="#a0d468" d="
  M 16.34 86.75
  L 31.42 86.75
  L 31.48 110.83
  L 16.31 110.86
  L 16.34 86.75
  Z"
/>
<path fill="#5d9cec" d="
  M 70.46 97.75
  L 55.45 97.75
  L 55.49 88.79
  A 2.05 2.05 0.0 0 1 57.54 86.75
  L 68.29 86.75
  A 2.19 2.19 0.0 0 1 70.48 88.94
  L 70.46 97.75
  Z"
/>
<path fill="#a0d468" d="
  M 94.50 93.13
  L 109.63 93.23
  L 109.60 128.13
  L 94.51 128.23
  L 94.50 93.13
  Z"
/>
<path fill="#414141" d="
  M 202.44 93.25
  C 206.78 95.91 209.19 97.21 209.91 102.67
  A 0.65 0.64 -3.1 0 0 210.54 103.23
  C 218.17 103.31 232.28 100.08 233.15 111.51
  L 166.51 111.53
  C 167.29 100.05 181.51 103.36 189.04 103.21
  A 0.69 0.69 0.0 0 0 189.71 102.64
  Q 190.97 95.78 197.02 93.35
  L 202.44 93.25
  Z"
/>
<path fill="#5d9cec" d="
  M 128.96 100.00
  L 114.13 99.89
  Q 113.67 97.10 114.26 94.76
  A 1.99 1.98 -83.0 0 1 116.17 93.26
  Q 121.54 93.20 126.75 93.41
  C 130.21 93.55 129.47 98.12 128.96 100.00
  Z"
/>
<path fill="#5d9cec" d="
  M 50.92 102.00
  L 35.82 102.02
  Q 35.41 99.01 36.18 96.83
  A 1.99 1.99 0.0 0 1 38.06 95.50
  L 48.79 95.50
  A 2.18 2.18 0.0 0 1 50.97 97.70
  L 50.92 102.00
  Z"
/>
<path fill="#a0d468" d="
  M 55.45 97.75
  L 70.46 97.75
  L 70.49 110.84
  L 55.45 110.87
  L 55.45 97.75
  Z"
/>
<path fill="#a0d468" d="
  M 128.96 100.00
  Q 129.63 107.15 129.03 115.02
  L 114.06 115.10
  L 114.13 99.89
  L 128.96 100.00
  Z"
/>
<path fill="#a0d468" d="
  M 35.82 102.02
  L 50.92 102.00
  L 50.71 136.75
  L 35.84 136.87
  L 35.82 102.02
  Z"
/>
<path fill="#48cfad" d="
  M 31.48 110.83
  L 31.49 140.95
  L 16.26 140.82
  L 16.31 110.86
  L 31.48 110.83
  Z"
/>
<path fill="#48cfad" d="
  M 70.49 110.84
  L 70.49 140.91
  L 55.43 140.91
  L 55.45 110.87
  L 70.49 110.84
  Z"
/>
<path fill="#48cfad" d="
  M 129.03 115.02
  L 129.21 118.70
  Q 129.24 119.25 128.76 119.52
  Q 120.97 124.03 114.60 130.38
  Q 114.08 130.89 114.08 130.17
  L 114.06 115.10
  L 129.03 115.02
  Z"
/>
<path fill="#5d9cec" d="
  M 90.06 123.75
  L 75.03 123.75
  L 75.00 119.52
  A 2.26 2.26 0.0 0 1 77.26 117.25
  L 88.05 117.25
  A 1.90 1.90 0.0 0 1 89.95 119.10
  L 90.06 123.75
  Z"
/>
<path fill="#a0d468" d="
  M 75.03 123.75
  L 90.06 123.75
  L 89.96 134.75
  L 75.07 134.74
  L 75.03 123.75
  Z"
/>
<path fill="#48cfad" d="
  M 109.60 128.13
  Q 111.01 135.98 105.89 140.94
  L 94.48 140.79
  L 94.51 128.23
  L 109.60 128.13
  Z"
/>
<path fill="#48cfad" d="
  M 75.07 134.74
  L 89.96 134.75
  L 90.14 135.47
  L 90.00 140.45
  Q 89.98 140.97 89.46 140.97
  L 74.98 140.94
  L 75.07 134.74
  Z"
/>
<path fill="#48cfad" d="
  M 50.71 136.75
  L 50.95 140.97
  L 35.79 140.93
  L 35.84 136.87
  L 50.71 136.75
  Z"
/>
<path fill="#414141" d="
  M 270.50 168.96
  C 264.16 168.97 244.18 167.45 239.68 170.66
  Q 231.30 162.80 222.53 170.39
  L 220.96 171.08
  A 0.52 0.52 0.0 0 1 220.24 170.49
  Q 220.37 169.87 219.91 169.51
  Q 219.57 169.24 219.14 169.23
  Q 198.23 168.92 176.64 169.80
  Q 167.52 163.01 159.71 171.05
  Q 158.46 169.39 157.06 169.35
  Q 151.47 169.21 135.53 169.00
  C 133.33 168.98 131.11 169.83 128.75 169.95
  Q 133.45 150.35 151.14 145.33
  Q 155.99 143.95 165.51 143.97
  Q 202.25 144.05 239.00 144.08
  C 254.07 144.09 267.66 153.68 270.50 168.96
  Z"
/>
<path fill="#00deff" d="
  M 96.24 177.76
  Q 94.73 164.99 99.41 153.95
  Q 99.93 152.72 98.63 153.06
  L 91.72 154.88
  Q 95.23 152.23 99.38 152.36
  Q 100.67 152.40 100.26 153.63
  Q 96.07 166.11 96.24 177.76
  Z"
/>
<path fill="#00ccfe" d="
  M 299.31 152.28
  C 309.94 153.14 314.81 159.73 314.75 169.70
  C 314.71 175.90 315.79 183.80 313.41 189.59
  Q 309.66 197.81 299.23 198.71
  C 305.11 182.80 304.44 168.30 299.31 152.28
  Z"
/>
<path fill="#00ccfe" d="
  M 96.24 177.76
  Q 96.76 188.34 100.13 198.55
  C 81.49 197.16 85.19 179.75 84.83 167.24
  C 85.55 161.88 87.53 158.43 91.72 154.88
  L 98.63 153.06
  Q 99.93 152.72 99.41 153.95
  Q 94.73 164.99 96.24 177.76
  Z"
/>
<path fill="#00deff" d="
  M 176.64 169.80
  C 180.28 174.89 181.93 183.12 174.06 184.05
  Q 168.73 184.68 164.49 184.31
  C 156.44 183.61 155.91 176.82 159.71 171.05
  Q 167.52 163.01 176.64 169.80
  Z"
/>
<path fill="#00deff" d="
  M 239.68 170.66
  C 242.99 175.31 243.72 183.25 236.41 184.09
  Q 230.62 184.75 225.59 184.08
  C 217.78 183.03 219.14 175.11 222.53 170.39
  Q 231.30 162.80 239.68 170.66
  Z"
/>
<path fill="#282828" d="
  M 159.71 171.05
  C 155.91 176.82 156.44 183.61 164.49 184.31
  Q 168.73 184.68 174.06 184.05
  C 181.93 183.12 180.28 174.89 176.64 169.80
  Q 198.23 168.92 219.14 169.23
  Q 219.57 169.24 219.91 169.51
  Q 220.37 169.87 220.24 170.49
  A 0.52 0.52 0.0 0 0 220.96 171.08
  L 222.53 170.39
  C 219.14 175.11 217.78 183.03 225.59 184.08
  Q 230.62 184.75 236.41 184.09
  C 243.72 183.25 242.99 175.31 239.68 170.66
  C 244.18 167.45 264.16 168.97 270.50 168.96
  C 274.03 187.02 263.38 201.89 246.32 206.57
  C 245.50 206.79 243.33 206.98 242.37 206.99
  Q 201.06 207.03 159.75 207.03
  C 139.52 207.03 126.31 189.54 128.75 169.95
  C 131.11 169.83 133.33 168.98 135.53 169.00
  Q 151.47 169.21 157.06 169.35
  Q 158.46 169.39 159.71 171.05
  Z"
/>
<path fill="#0c7238" d="
  M 313.41 189.59
  Q 333.92 189.87 353.77 189.76
  C 354.64 189.75 356.29 190.14 356.91 190.77
  Q 371.38 205.34 385.99 219.76
  C 388.26 222.00 388.96 224.96 388.97 228.38
  Q 389.03 251.94 388.99 275.50
  L 373.30 275.50
  Q 371.79 275.50 371.78 277.02
  L 371.73 298.16
  Q 371.73 298.66 371.23 298.67
  Q 364.62 298.85 358.00 299.05
  C 354.06 299.17 356.27 308.79 357.62 310.66
  Q 363.58 318.89 370.31 326.45
  C 371.27 327.54 372.71 327.83 374.04 327.96
  C 366.67 329.07 360.42 327.36 351.24 327.77
  Q 343.48 328.12 338.37 329.41
  Q 328.46 330.05 318.30 329.59
  C 310.79 329.25 302.37 330.14 294.82 328.90
  C 293.64 328.70 290.00 329.78 289.49 329.29
  Q 289.12 328.95 288.94 329.42
  L 288.61 330.28
  L 283.41 301.19
  C 288.13 297.06 291.71 294.38 292.78 287.74
  Q 295.31 272.09 281.88 265.23
  L 281.84 223.53
  Q 293.02 213.38 299.23 198.71
  Q 309.66 197.81 313.41 189.59
  Z
  M 365.13 206.93
  Q 360.74 201.31 355.04 196.85
  Q 354.69 195.29 353.86 195.01
  A 0.62 0.62 0.0 0 0 353.05 195.60
  L 353.03 225.99
  Q 353.03 226.70 353.74 226.70
  L 380.48 226.84
  A 0.93 0.92 85.6 0 0 381.40 225.76
  C 380.68 221.51 378.64 220.46 376.15 217.67
  Q 374.94 216.31 373.38 215.18
  Q 372.96 214.88 372.87 214.37
  Q 372.66 213.23 371.46 213.23
  A 1.15 1.13 72.0 0 1 370.50 212.73
  Q 368.15 209.24 365.13 206.93
  Z
  M 314.44 236.10
  C 315.75 243.42 322.71 252.45 326.55 259.03
  C 328.85 262.96 327.18 264.84 325.12 268.06
  Q 318.52 278.39 311.94 288.82
  A 0.42 0.42 0.0 0 0 312.29 289.46
  L 322.58 289.52
  A 2.73 2.72 14.0 0 0 325.01 288.06
  L 335.12 268.88
  Q 335.49 268.18 335.86 268.88
  L 346.42 288.83
  A 1.30 1.29 75.7 0 0 347.58 289.52
  L 358.48 289.40
  Q 359.27 289.39 358.85 288.72
  Q 351.44 276.85 344.06 264.97
  C 343.24 263.64 343.04 261.83 343.83 260.58
  C 349.29 252.02 356.26 242.62 357.73 235.46
  C 351.49 233.81 347.17 231.28 345.34 238.93
  L 336.43 256.29
  Q 336.21 256.72 336.00 256.29
  L 326.35 237.11
  Q 326.18 235.80 325.32 234.46
  Q 325.07 234.06 324.60 234.05
  L 315.55 233.82
  Q 315.06 233.81 314.76 234.19
  Q 314.03 235.10 314.44 236.10
  Z"
/>
<path fill="#dcedc8" d="
  M 355.04 196.85
  Q 358.75 203.27 365.13 206.93
  Q 368.15 209.24 370.50 212.73
  A 1.15 1.13 72.0 0 0 371.46 213.23
  Q 372.66 213.23 372.87 214.37
  Q 372.96 214.88 373.38 215.18
  Q 374.94 216.31 376.15 217.67
  C 378.64 220.46 380.68 221.51 381.40 225.76
  A 0.93 0.92 85.6 0 1 380.48 226.84
  L 353.74 226.70
  Q 353.03 226.70 353.03 225.99
  L 353.05 195.60
  A 0.62 0.62 0.0 0 1 353.86 195.01
  Q 354.69 195.29 355.04 196.85
  Z"
/>
<path fill="#439f47" d="
  M 355.04 196.85
  Q 360.74 201.31 365.13 206.93
  Q 358.75 203.27 355.04 196.85
  Z"
/>
<path fill="#439f47" d="
  M 326.35 237.11
  Q 320.18 239.54 314.44 236.10
  Q 314.03 235.10 314.76 234.19
  Q 315.06 233.81 315.55 233.82
  L 324.60 234.05
  Q 325.07 234.06 325.32 234.46
  Q 326.18 235.80 326.35 237.11
  Z"
/>
<path fill="#439f47" d="
  M 357.73 235.46
  Q 355.71 236.71 353.71 237.48
  C 351.00 238.52 348.22 237.37 345.34 238.93
  C 347.17 231.28 351.49 233.81 357.73 235.46
  Z"
/>
<path fill="#e8eaeb" d="
  M 357.73 235.46
  C 356.26 242.62 349.29 252.02 343.83 260.58
  C 343.04 261.83 343.24 263.64 344.06 264.97
  Q 351.44 276.85 358.85 288.72
  Q 359.27 289.39 358.48 289.40
  L 347.58 289.52
  A 1.30 1.29 75.7 0 1 346.42 288.83
  L 335.86 268.88
  Q 335.49 268.18 335.12 268.88
  L 325.01 288.06
  A 2.73 2.72 14.0 0 1 322.58 289.52
  L 312.29 289.46
  A 0.42 0.42 0.0 0 1 311.94 288.82
  Q 318.52 278.39 325.12 268.06
  C 327.18 264.84 328.85 262.96 326.55 259.03
  C 322.71 252.45 315.75 243.42 314.44 236.10
  Q 320.18 239.54 326.35 237.11
  L 336.00 256.29
  Q 336.21 256.72 336.43 256.29
  L 345.34 238.93
  C 348.22 237.37 351.00 238.52 353.71 237.48
  Q 355.71 236.71 357.73 235.46
  Z"
/>
<path fill="#282828" d="
  M 216.72 239.29
  Q 215.68 244.38 216.58 249.77
  L 203.21 249.80
  L 198.69 249.77
  L 185.32 249.81
  L 185.47 239.30
  L 216.72 239.29
  Z"
/>
<path fill="#414141" d="
  M 203.21 249.80
  L 203.26 304.62
  Q 203.26 305.09 203.72 305.19
  Q 221.06 308.63 224.37 325.99
  A 0.59 0.58 84.6 0 0 224.94 326.47
  L 263.46 326.50
  L 262.79 330.78
  L 224.92 330.79
  Q 224.40 330.79 224.32 331.30
  C 219.77 358.82 182.31 358.75 177.58 331.33
  Q 177.49 330.81 176.97 330.80
  Q 159.03 330.60 141.33 330.87
  Q 139.85 330.90 136.78 330.51
  L 136.03 326.57
  L 176.90 326.52
  Q 177.39 326.52 177.48 326.04
  Q 180.76 308.49 198.26 305.16
  Q 198.71 305.07 198.71 304.61
  L 198.69 249.77
  L 203.21 249.80
  Z
  M 219.57 328.57
  A 18.67 18.67 0.0 0 0 200.90 309.90
  A 18.67 18.67 0.0 0 0 182.23 328.57
  A 18.67 18.67 0.0 0 0 200.90 347.24
  A 18.67 18.67 0.0 0 0 219.57 328.57
  Z"
/>
<path fill="#e8eaeb" d="
  M 185.32 249.81
  L 198.69 249.77
  L 198.71 304.61
  Q 198.71 305.07 198.26 305.16
  Q 180.76 308.49 177.48 326.04
  Q 177.39 326.52 176.90 326.52
  L 136.03 326.57
  L 131.00 302.18
  C 127.89 288.20 123.50 276.61 133.39 263.75
  C 147.73 248.70 164.55 249.48 185.32 249.81
  Z"
/>
<path fill="#e8eaeb" d="
  M 203.21 249.80
  L 216.58 249.77
  C 236.24 249.85 252.05 248.79 266.02 263.76
  C 276.26 276.08 271.73 288.25 268.61 302.08
  L 263.46 326.50
  L 224.94 326.47
  A 0.59 0.58 84.6 0 1 224.37 325.99
  Q 221.06 308.63 203.72 305.19
  Q 203.26 305.09 203.26 304.62
  L 203.21 249.80
  Z"
/>
<path fill="#00ccfe" d="
  M 133.39 263.75
  C 123.50 276.61 127.89 288.20 131.00 302.18
  L 124.84 303.58
  L 115.58 301.05
  C 107.17 294.72 102.96 286.22 106.95 276.33
  C 111.74 264.48 121.96 262.92 133.39 263.75
  Z"
/>
<path fill="#00ccfe" d="
  M 271.61 263.72
  Q 275.00 264.67 278.85 264.44
  L 281.88 265.23
  Q 295.31 272.09 292.78 287.74
  C 291.71 294.38 288.13 297.06 283.41 301.19
  L 275.06 303.60
  Q 274.80 303.68 274.77 303.95
  Q 274.73 304.21 274.48 304.28
  L 274.51 303.90
  A 0.54 0.54 0.0 0 0 273.97 303.31
  Q 271.44 303.31 268.61 302.08
  C 271.73 288.25 276.26 276.08 266.02 263.76
  Q 269.28 263.16 271.61 263.72
  Z"
/>
<path fill="#48cfad" d="
  M 271.61 263.72
  Q 275.61 262.93 278.85 264.44
  Q 275.00 264.67 271.61 263.72
  Z"
/>
<path fill="#439f47" d="
  M 388.99 275.50
  L 389.04 282.50
  Q 389.03 282.64 389.01 282.80
  A 0.34 0.32 -85.9 0 1 388.69 283.09
  L 380.38 283.23
  A 0.89 0.89 0.0 0 0 379.50 284.12
  L 379.50 305.75
  A 0.80 0.80 0.0 0 1 378.69 306.55
  L 364.34 306.48
  A 0.69 0.68 77.5 0 0 363.72 307.46
  Q 364.34 308.80 365.42 310.10
  Q 372.00 318.04 378.23 326.25
  A 0.63 0.62 66.2 0 1 377.85 327.25
  L 374.04 327.96
  C 372.71 327.83 371.27 327.54 370.31 326.45
  Q 363.58 318.89 357.62 310.66
  C 356.27 308.79 354.06 299.17 358.00 299.05
  Q 364.62 298.85 371.23 298.67
  Q 371.73 298.66 371.73 298.16
  L 371.78 277.02
  Q 371.79 275.50 373.30 275.50
  L 388.99 275.50
  Z"
/>
<path fill="#455a64" d="
  M 389.04 282.50
  C 389.53 283.73 396.38 283.22 397.93 283.34
  Q 398.50 283.39 398.50 283.96
  L 398.50 306.12
  A 0.67 0.67 0.0 0 0 399.19 306.79
  L 413.25 306.43
  A 0.78 0.78 0.0 0 1 413.98 307.54
  C 413.46 308.64 412.98 309.74 412.17 310.71
  Q 401.35 323.84 390.66 337.52
  A 1.88 1.88 0.0 0 1 387.90 337.74
  Q 384.06 334.16 381.58 329.57
  A 0.83 0.83 0.0 0 0 380.26 329.37
  C 378.66 330.98 368.31 330.24 365.77 330.17
  Q 365.25 330.15 364.84 329.81
  Q 363.98 329.10 363.48 329.82
  A 1.12 1.09 -72.9 0 1 362.62 330.29
  C 353.65 330.63 345.39 331.28 338.37 329.41
  Q 343.48 328.12 351.24 327.77
  C 360.42 327.36 366.67 329.07 374.04 327.96
  L 377.85 327.25
  A 0.63 0.62 66.2 0 0 378.23 326.25
  Q 372.00 318.04 365.42 310.10
  Q 364.34 308.80 363.72 307.46
  A 0.69 0.68 77.5 0 1 364.34 306.48
  L 378.69 306.55
  A 0.80 0.80 0.0 0 0 379.50 305.75
  L 379.50 284.12
  A 0.89 0.89 0.0 0 1 380.38 283.23
  L 388.69 283.09
  A 0.34 0.32 -85.9 0 0 389.01 282.80
  Q 389.03 282.64 389.04 282.50
  Z"
/>
<path fill="#e8eaeb" d="
  M 115.58 301.05
  L 124.84 303.58
  L 116.58 351.99
  Q 116.47 352.65 115.87 352.33
  L 108.01 348.11
  Q 107.50 347.84 107.60 347.26
  L 115.58 301.05
  Z"
/>
<path fill="#e8eaeb" d="
  M 283.41 301.19
  L 288.61 330.28
  L 292.11 350.72
  Q 292.21 351.26 291.76 351.57
  L 283.76 357.21
  A 0.26 0.26 0.0 0 1 283.35 357.04
  L 274.48 304.28
  Q 274.73 304.21 274.77 303.95
  Q 274.80 303.68 275.06 303.60
  L 283.41 301.19
  Z"
/>
<circle fill="#00ccfe" cx="200.90" cy="328.57" r="18.67"/>
<path fill="#e8eaeb" d="
  M 136.78 330.51
  Q 139.85 330.90 141.33 330.87
  Q 159.03 330.60 176.97 330.80
  Q 177.49 330.81 177.58 331.33
  C 182.31 358.75 219.77 358.82 224.32 331.30
  Q 224.40 330.79 224.92 330.79
  L 262.79 330.78
  L 253.90 374.09
  Q 253.80 374.58 253.36 374.81
  Q 217.09 393.90 176.74 400.00
  L 174.45 400.00
  L 173.05 399.71
  Q 172.48 399.59 173.02 399.36
  Q 192.17 391.25 201.55 372.69
  A 0.45 0.45 0.0 0 0 201.14 372.03
  Q 171.86 372.62 143.99 363.71
  Q 143.49 363.55 143.38 363.03
  L 136.78 330.51
  Z"
/>
</svg>
